<svg version="1.2" baseProfile="tiny-ps" xmlns="http://www.w3.org/2000/svg" viewBox="0 0 35 22" width="35" height="22">
	<title>MENU</title>
	<style>
		tspan { white-space:pre }
		.shp0 { fill: #ffa200 } 
	</style>
	<g id="MENU">
		<path id="ver mais" class="shp0" d="M2 0L33 0C34.1 0 35 0.9 35 2C35 3.1 34.1 4 33 4L2 4C0.9 4 0 3.1 0 2C0 0.9 0.9 0 2 0ZM2 9L33 9C34.1 9 35 9.9 35 11C35 12.1 34.1 13 33 13L2 13C0.9 13 0 12.1 0 11C0 9.9 0.9 9 2 9ZM2 18L33 18C34.1 18 35 18.9 35 20C35 21.1 34.1 22 33 22L2 22C0.9 22 0 21.1 0 20C0 18.9 0.9 18 2 18Z" />
	</g>
</svg>